<?xml version="1.0" encoding="UTF-8"?>
<svg id="_图层_1" data-name="图层_1" xmlns="http://www.w3.org/2000/svg" version="1.1" viewBox="0 0 384 512">
  <!-- Generator: Adobe Illustrator 29.0.1, SVG Export Plug-In . SVG Version: 2.1.0 Build 192)  -->
  <defs>
    <style>
      .st0 {
        fill: #ed5454;
      }
    </style>
  </defs>
  <path class="st0" d="M318.7,268.7c-.2-36.7,16.4-64.4,50-84.8-18.8-26.9-47.2-41.7-84.7-44.6-35.5-2.8-74.3,20.7-88.5,20.7s-49.4-19.7-76.4-19.7c-55.8.9-115.1,44.5-115.1,133.2s4.8,53.3,14.4,81.2c12.8,36.7,59,126.7,107.2,125.2,25.2-.6,43-17.9,75.8-17.9s48.3,17.9,76.4,17.9c48.6-.7,90.4-82.5,102.6-119.3-65.2-30.7-61.7-90-61.7-91.9h0ZM262.1,104.5c27.3-32.4,24.8-61.9,24-72.5-24.1,1.4-52,16.4-67.9,34.9-17.5,19.8-27.8,44.3-25.6,71.9,26.1,2,49.9-11.4,69.5-34.3Z"/>
</svg>